# xmcd
#
# Track frame offsets: 
#        150
#        1436
#        15605
#        36008
#        56441
#        77714
#        94819
#        117507
#        133611
#        152402
#        166434
#        178430
#        196809
#        208178
#        227137
#        246786
#        268115
#        277680
#        292104
#        314962
#
# Disc length: 4283 seconds
#
# Revision: 0
# Processed by: cddbd v1.5.2PL0 Copyright (c) Steve Scherf et al.
# Submitted via: ExactAudioCopy v0.95a5
#
DISCID=2110b914
DTITLE=Nas - The Lost Prophecy
DYEAR=2007
DGENRE=Hip-Hop
TTITLE0=Intro
TTITLE1=Hope
TTITLE2=Classic feat. Kanye West, KRS-1 and Rakim
TTITLE3=Where Are They Now (80's Remix)
TTITLE4=Where Are They Now (90's Remix)
TTITLE5=Represent (Premo's Original Demo)
TTITLE6=Fuck Death Row feat. The Dogg Pound
TTITLE7=Worst Enemy
TTITLE8=2 Seater
TTITLE9=Ridin Broke feat. The Bravehearts
TTITLE10=Hustlers And Killers
TTITLE11=Tripple Threat feat. N.O.R.E and Nature
TTITLE12=Amongst Kings
TTITLE13=Never Gonna Give It Up
TTITLE14=Calm Down feat. N.O.R.E and Tragedy
TTITLE15=Sometimes I Wonder feat. Nature
TTITLE16=Stay Dreaming Stay Scheming
TTITLE17=Good Morning (Remix) feat. Trey Williams
TTITLE18=Project Window (RAW Remix) feat. Ron Isley
TTITLE19=Sinfull Living
EXTD=
EXTT0=
EXTT1=
EXTT2=
EXTT3=
EXTT4=
EXTT5=
EXTT6=
EXTT7=
EXTT8=
EXTT9=
EXTT10=
EXTT11=
EXTT12=
EXTT13=
EXTT14=
EXTT15=
EXTT16=
EXTT17=
EXTT18=
EXTT19=
PLAYORDER=
